HIERARCHY
ROOT Hips
{
 OFFSET 0.000000 0.000000 0.000000
 CHANNELS 6 Xposition Yposition Zposition Yrotation Xrotation Zrotation
 JOINT Chest
 {
  OFFSET 0.000000 9.585900 0.002600
  CHANNELS 3 Yrotation Xrotation Zrotation
  JOINT Chest2
  {
   OFFSET 0.000000 9.601200 -0.005300
   CHANNELS 3 Yrotation Xrotation Zrotation
   JOINT Chest3
   {
    OFFSET 0.000000 9.561800 0.000000
    CHANNELS 3 Yrotation Xrotation Zrotation
    JOINT Chest4
    {
     OFFSET 0.000000 9.552100 0.000000
     CHANNELS 3 Yrotation Xrotation Zrotation
     JOINT Neck
     {
      OFFSET 0.000000 14.453000 0.000000
      CHANNELS 3 Yrotation Xrotation Zrotation
      JOINT Head
      {
       OFFSET 0.000000 8.936500 -0.011300
       CHANNELS 3 Yrotation Xrotation Zrotation
       End Site
       {
        OFFSET 0.000000 17.073600 -0.006000
       }
      }
     }
     JOINT RightCollar
     {
      OFFSET -2.921100 9.558500 0.000000
      CHANNELS 3 Yrotation Xrotation Zrotation
      JOINT RightShoulder
      {
       OFFSET -13.519700 0.000000 0.000000
       CHANNELS 3 Yrotation Xrotation Zrotation
       JOINT RightElbow
       {
        OFFSET 0.000000 -29.696600 0.000000
        CHANNELS 3 Yrotation Xrotation Zrotation
        JOINT RightWrist
        {
         OFFSET 0.000000 -24.004700 0.000000
         CHANNELS 3 Yrotation Xrotation Zrotation
         End Site
         {
          OFFSET 0.000000 -17.728500 0.000000
         }
        }
       }
      }
     }
     JOINT LeftCollar
     {
      OFFSET 2.921100 9.558500 0.000000
      CHANNELS 3 Yrotation Xrotation Zrotation
      JOINT LeftShoulder
      {
       OFFSET 13.519700 0.000000 0.000000
       CHANNELS 3 Yrotation Xrotation Zrotation
       JOINT LeftElbow
       {
        OFFSET 0.000000 -29.696600 0.000000
        CHANNELS 3 Yrotation Xrotation Zrotation
        JOINT LeftWrist
        {
         OFFSET 0.000000 -24.004700 0.000000
         CHANNELS 3 Yrotation Xrotation Zrotation
         End Site
         {
          OFFSET 0.000000 -17.728500 0.000000
         }
        }
       }
      }
     }
    }
   }
  }
 }
 JOINT RightHip
 {
  OFFSET -7.771700 -0.012900 -0.001300
  CHANNELS 3 Yrotation Xrotation Zrotation
  JOINT RightKnee
  {
   OFFSET 0.000000 -40.869800 0.001200
   CHANNELS 3 Yrotation Xrotation Zrotation
   JOINT RightAnkle
   {
    OFFSET 0.000000 -39.717900 0.002100
    CHANNELS 3 Yrotation Xrotation Zrotation
    JOINT RightToe
    {
     OFFSET 0.000000 -4.965400 11.033500
     CHANNELS 3 Yrotation Xrotation Zrotation
     End Site
     {
      OFFSET 0.000000 -1.423100 5.872300
     }
    }
   }
  }
 }
 JOINT LeftHip
 {
  OFFSET 7.771700 -0.012900 -0.001300
  CHANNELS 3 Yrotation Xrotation Zrotation
  JOINT LeftKnee
  {
   OFFSET 0.000000 -40.869800 0.001200
   CHANNELS 3 Yrotation Xrotation Zrotation
   JOINT LeftAnkle
   {
    OFFSET 0.000000 -39.717900 0.002100
    CHANNELS 3 Yrotation Xrotation Zrotation
    JOINT LeftToe
    {
     OFFSET 0.000000 -4.965400 11.033500
     CHANNELS 3 Yrotation Xrotation Zrotation
     End Site
     {
      OFFSET 0.000000 -1.423100 5.872300
     }
    }
   }
  }
 }
}
MOTION
Frames: 14
Frame Time: 0.008333
0.000000 85.388000 0.000000 0.000000 -5.767877 0.000000 0.000000 11.653817 0.000000 0.000000 -5.885947 0.000000 0.000000 -0.000000 0.000000 0.000000 -0.000000 0.000000 0.000000 12.528835 0.000000 0.000000 0.711642 0.000000 0.000000 -0.000000 0.000000 0.000000 0.000000 -90.000000 0.000000 -2.309062 0.000000 0.000000 2.309062 0.000000 0.000000 -0.000000 0.000000 0.000000 -0.000000 90.000000 0.000000 -2.309062 0.000000 0.000000 2.309062 0.000000 0.000000 8.520406 0.000000 0.000000 1.905762 0.000000 -0.000000 -4.658285 0.000000 0.000000 -0.000000 0.000000 0.000000 8.520406 0.000000 0.000000 1.905762 0.000000 -0.000000 -4.658285 0.000000 0.000000 -0.000000 0.000000
-186.756568 58.074987 29.269934 170.498395 -49.065623 -3.385130 5.492126 21.576269 3.188875 2.851649 12.374713 1.636395 3.634914 15.415998 2.146129 2.852319 12.371887 1.632743 4.388739 17.104857 4.904807 6.444254 -4.070690 7.568592 1.392120 5.583672 0.952212 2.112605 -13.264461 -9.226827 -64.855340 -69.118204 104.424051 1.355275 18.920719 -24.272007 -9.360675 2.548164 -1.463234 0.924572 -11.606486 14.902694 45.093877 -45.232836 -97.905673 10.802260 -1.816557 8.000895 3.360742 -23.666866 1.104544 -37.564088 73.106588 -38.559995 6.851019 -12.197553 9.164521 0.056995 -0.225282 0.018532 0.482792 -22.383684 13.592994 50.288463 79.952493 50.428286 3.593843 -16.212448 -15.195219 0.081558 0.195476 0.038307
-186.755647 58.075700 29.272216 170.504389 -49.095465 -3.397884 5.493372 21.599246 3.198655 2.848484 12.358134 1.632452 3.638875 15.433224 2.151996 2.847996 12.340130 1.634351 4.479944 17.234091 5.023941 6.568806 -3.868730 7.757930 1.396051 5.609539 0.953280 2.114983 -13.259486 -9.230674 -64.876869 -69.147099 104.441341 1.392390 18.971077 -24.211627 -9.360584 2.570731 -1.472159 0.943541 -11.619946 14.896406 45.052360 -45.248990 -97.869968 10.832067 -1.809918 8.002645 3.350849 -23.634740 1.112568 -37.548941 73.101807 -38.542153 6.860807 -12.195661 9.161571 0.051352 -0.223978 0.018730 0.478192 -22.355376 13.606488 50.283625 79.949327 50.424242 3.581406 -16.206933 -15.194412 0.086303 0.192141 0.039422
-186.757478 58.074485 29.276155 170.508865 -49.113859 -3.395751 5.486808 21.590161 3.189312 2.849106 12.361211 1.635078 3.639758 15.437007 2.155348 2.849218 12.345052 1.641392 4.558623 17.332478 5.134449 6.679476 -3.689241 7.936640 1.393754 5.611509 0.953597 2.126862 -13.268479 -9.242788 -64.849514 -69.149244 104.403339 1.441004 19.001503 -24.156699 -9.362342 2.573881 -1.466311 0.960613 -11.636020 14.883051 45.018859 -45.262914 -97.844062 10.858279 -1.805767 8.010725 3.343598 -23.615494 1.102453 -37.520670 73.104046 -38.516263 6.865528 -12.200844 9.167611 0.044751 -0.217573 0.012088 0.479478 -22.338719 13.601240 50.292293 79.942753 50.433216 3.569881 -16.205888 -15.194318 0.089697 0.194464 0.041649
-186.757476 58.075467 29.279150 170.510033 -49.150838 -3.402337 5.485248 21.596476 3.194827 2.848342 12.345234 1.641573 3.640782 15.448044 2.164275 2.849715 12.370012 1.641949 4.627859 17.418370 5.236422 6.775355 -3.532630 8.102776 1.390531 5.617167 0.947233 2.151913 -13.313593 -9.256860 -64.766820 -69.138371 104.297103 1.479962 19.019741 -24.106666 -9.361491 2.579614 -1.470265 0.958088 -11.660366 14.883998 45.000126 -45.247624 -97.825225 10.858494 -1.803440 8.023147 3.338010 -23.578379 1.108946 -37.508080 73.103947 -38.497889 6.856528 -12.200482 9.170216 0.048378 -0.214594 0.005655 0.480071 -22.304049 13.608503 50.298955 79.939346 50.441510 3.564712 -16.200549 -15.194719 0.087618 0.192122 0.042353
-186.756965 58.078435 29.281128 170.515327 -49.202071 -3.415738 5.485876 21.601150 3.210563 2.849156 12.377863 1.644846 3.639766 15.451886 2.171139 2.848701 12.376181 1.638769 4.689826 17.491882 5.337384 6.856176 -3.395857 8.255776 1.389033 5.616040 0.945019 2.169997 -13.333829 -9.267939 -64.791344 -69.158239 104.304090 1.493056 19.043814 -24.056464 -9.355898 2.580511 -1.457217 0.943593 -11.683165 14.877692 44.999402 -45.264882 -97.804812 10.899088 -1.802576 8.019310 3.328496 -23.525693 1.121193 -37.489494 73.098886 -38.475291 6.854923 -12.188737 9.167777 0.049632 -0.220088 0.003082 0.474412 -22.254091 13.618509 50.312654 79.937284 50.455630 3.567359 -16.191641 -15.194584 0.086338 0.184600 0.039724
-186.752567 58.077283 29.288306 170.536065 -49.215948 -3.470819 5.487230 21.597214 3.255415 2.849663 12.388824 1.644741 3.638656 15.453370 2.181653 2.846839 12.376592 1.633803 4.744465 17.561214 5.432970 6.923311 -3.277832 8.396961 1.386576 5.615701 0.948367 2.189844 -13.354105 -9.284513 -64.821371 -69.173767 104.327883 1.504391 19.068219 -24.012882 -9.342427 2.582687 -1.440339 0.904441 -11.714464 14.879377 45.024841 -45.342448 -97.781404 10.963248 -1.796285 8.025643 3.293977 -23.511835 1.161192 -37.456596 73.078033 -38.432843 6.875188 -12.204532 9.162365 0.037491 -0.185608 0.000219 0.442150 -22.239557 13.661521 50.320666 79.935028 50.462445 3.581217 -16.169538 -15.191540 0.066011 0.167870 0.030459
-186.755246 58.078292 29.292414 170.545608 -49.245246 -3.474492 5.479860 21.620109 3.255866 2.849723 12.385623 1.648819 3.637930 15.464949 2.182122 2.846344 12.377928 1.643439 4.790269 17.626271 5.514479 6.979265 -3.179251 8.527670 1.369459 5.654617 0.962088 2.220570 -13.404284 -9.320748 -64.879657 -69.184819 104.388696 1.523291 19.094012 -23.965156 -9.329940 2.583181 -1.438697 0.883209 -11.727674 14.872822 45.035252 -45.347613 -97.779561 10.920394 -1.790896 8.031479 3.289329 -23.471968 1.145469 -37.393963 73.073177 -38.364878 6.898610 -12.217290 9.167299 0.031840 -0.173987 -0.001810 0.428493 -22.205364 13.656621 50.344040 79.920268 50.475051 3.580765 -16.168739 -15.191799 0.066611 0.173150 0.029782
-186.757395 58.079507 29.297117 170.544695 -49.270829 -3.475641 5.482115 21.646246 3.262470 2.847773 12.384576 1.652782 3.638377 15.469110 2.181546 2.847347 12.387062 1.655568 4.828858 17.683343 5.586371 7.024798 -3.099149 8.647664 1.357391 5.687393 0.963469 2.242928 -13.458300 -9.346208 -64.946846 -69.189781 104.464480 1.540504 19.120091 -23.921647 -9.315925 2.584482 -1.434294 0.848453 -11.752044 14.876859 45.070106 -45.395800 -97.785630 10.927021 -1.787459 8.015475 3.292440 -23.443223 1.140809 -37.363304 73.069582 -38.326813 6.905074 -12.220316 9.171845 0.026602 -0.166898 -0.008654 0.421350 -22.177044 13.658145 50.357005 79.912884 50.480573 3.582038 -16.168904 -15.193487 0.065466 0.176781 0.030143
-186.759063 58.080874 29.302528 170.548498 -49.290561 -3.485243 5.484003 21.669987 3.274124 2.846810 12.388534 1.656921 3.638398 15.479267 2.187339 2.855021 12.433938 1.680835 4.847845 17.691736 5.627681 7.058589 -3.035233 8.754603 1.337060 5.680657 0.949432 2.273429 -13.522974 -9.375024 -65.090741 -69.193895 104.609126 1.545222 19.169657 -23.881184 -9.279491 2.594380 -1.407628 0.795829 -11.835260 14.851233 45.139916 -45.526576 -97.791146 11.007123 -1.762063 7.957088 3.289646 -23.422087 1.145013 -37.347973 73.062276 -38.300706 6.905274 -12.212628 9.164383 0.029028 -0.166523 -0.005863 0.405212 -22.154725 13.664809 50.337688 79.903152 50.453461 3.586466 -16.159072 -15.196160 0.066238 0.177552 0.030114
-186.760095 58.080439 29.310376 170.537750 -49.289690 -3.490945 5.496401 21.669576 3.289812 2.848044 12.404139 1.664201 3.642961 15.526429 2.211513 2.849218 12.414907 1.668949 4.869430 17.718609 5.680884 7.081583 -2.986412 8.845737 1.324350 5.702603 0.955292 2.322192 -13.565341 -9.411787 -65.183405 -69.204025 104.668505 1.568803 19.172455 -23.813918 -9.274216 2.574200 -1.407753 0.772293 -11.835929 14.891875 45.238187 -45.583869 -97.853276 11.046963 -1.746012 7.917056 3.292866 -23.422105 1.158107 -37.258616 73.054839 -38.202401 6.877730 -12.196213 9.159913 0.029964 -0.165163 -0.001129 0.394013 -22.153973 13.679690 50.308411 79.898924 50.415370 3.595496 -16.160279 -15.198518 0.063434 0.185505 0.030015
-186.762742 58.080997 29.317599 170.530369 -49.290406 -3.489656 5.500545 21.680936 3.298893 2.849344 12.414819 1.669006 3.643028 15.546601 2.219350 2.849946 12.426049 1.673668 4.884256 17.735988 5.724017 7.095165 -2.954984 8.920390 1.316563 5.721323 0.959834 2.350839 -13.595884 -9.443992 -65.343311 -69.211416 104.812839 1.597274 19.196124 -23.745095 -9.269848 2.550706 -1.410358 0.764581 -11.854361 14.890587 45.283975 -45.659444 -97.860905 11.082223 -1.729354 7.869688 3.302346 -23.419205 1.158539 -37.201993 73.048942 -38.139450 6.872071 -12.194344 9.157351 0.026949 -0.158874 0.003270 0.388593 -22.152107 13.683427 50.295356 79.890423 50.395605 3.596363 -16.157931 -15.200032 0.063398 0.191431 0.031182
-186.765639 58.082155 29.324789 170.525310 -49.289619 -3.488866 5.499756 21.697613 3.304745 2.850654 12.442609 1.681532 3.643029 15.524978 2.207831 2.854953 12.461909 1.693917 4.891638 17.742279 5.756679 7.098138 -2.943851 8.978185 1.311571 5.732066 0.960650 2.363640 -13.617438 -9.472276 -65.501562 -69.212280 104.974325 1.624053 19.221295 -23.720312 -9.260589 2.554581 -1.397458 0.764071 -11.860567 14.885751 45.367822 -45.752712 -97.920510 11.070959 -1.708678 7.800781 3.310738 -23.419287 1.157712 -37.142794 73.046464 -38.076424 6.868762 -12.185903 9.158224 0.024539 -0.159154 0.003678 0.387848 -22.152781 13.685470 50.271339 79.881677 50.369516 3.592620 -16.152654 -15.200444 0.067485 0.191499 0.032554
-186.768222 58.084260 29.331616 170.515656 -49.290898 -3.485932 5.507858 21.720197 3.319126 2.850189 12.437877 1.678457 3.643232 15.532528 2.211041 2.861915 12.499062 1.718695 4.886178 17.727033 5.764835 7.094130 -2.943289 9.034104 1.301732 5.705032 0.940250 2.360020 -13.592064 -9.475227 -65.663679 -69.215573 105.138795 1.664721 19.247000 -23.679507 -9.246412 2.609055 -1.375690 0.764133 -11.900475 14.863142 45.445465 -45.856840 -97.979374 11.006275 -1.683643 7.737857 3.321793 -23.416558 1.162525 -37.091179 73.041812 -38.021131 6.858063 -12.177043 9.158624 0.026568 -0.157442 0.004645 0.384054 -22.148673 13.687769 50.270187 79.872562 50.360688 3.594942 -16.151376 -15.200397 0.068200 0.190549 0.030955
